<svg width="24" height="24" viewBox="0 0 24 24" fill="none" xmlns="http://www.w3.org/2000/svg">
<path d="M17.073 12.4997H5.5C5.358 12.4997 5.239 12.452 5.143 12.3567C5.04767 12.2607 5 12.1417 5 11.9997C5 11.8577 5.04767 11.7387 5.143 11.6427C5.239 11.5474 5.358 11.4997 5.5 11.4997H17.073L13.338 7.7647C13.2407 7.66736 13.19 7.5527 13.186 7.4207C13.1813 7.2887 13.232 7.1677 13.338 7.0577C13.4487 6.94703 13.5677 6.8907 13.695 6.8887C13.823 6.88736 13.942 6.9417 14.052 7.0517L18.435 11.4347C18.5217 11.5214 18.5827 11.6104 18.618 11.7017C18.6533 11.7924 18.671 11.8917 18.671 11.9997C18.671 12.1077 18.6533 12.207 18.618 12.2977C18.5827 12.389 18.5217 12.478 18.435 12.5647L14.052 16.9477C13.9547 17.045 13.839 17.096 13.705 17.1007C13.571 17.1054 13.4487 17.0524 13.338 16.9417C13.2313 16.8317 13.1773 16.7137 13.176 16.5877C13.174 16.4624 13.228 16.3447 13.338 16.2347L17.073 12.4997Z" fill="#23262F"/>
</svg>
