<svg width="53" height="19" viewBox="0 0 53 19" fill="none" xmlns="http://www.w3.org/2000/svg">
<path d="M9.50047 13.5391L6.62672 15.2744C6.54228 15.3166 6.4639 15.3335 6.3916 15.3251C6.31982 15.3166 6.24989 15.2915 6.18181 15.2499C6.11319 15.2087 6.06147 15.149 6.02664 15.0709C5.99075 14.9934 5.98758 14.9094 6.01714 14.8192L6.7811 11.5654L4.25251 9.37252C4.18179 9.31446 4.13482 9.24506 4.1116 9.16431C4.0889 9.08356 4.09392 9.00624 4.12664 8.93235C4.15883 8.85846 4.20237 8.79777 4.25726 8.75027C4.31215 8.70383 4.38604 8.67269 4.47893 8.65685L7.8166 8.36552L9.1181 5.28435C9.15399 5.19727 9.20571 5.13446 9.27326 5.09594C9.34082 5.05741 9.41656 5.03788 9.50047 5.03735C9.58492 5.03735 9.66092 5.05688 9.72847 5.09594C9.79603 5.13499 9.84749 5.1978 9.88285 5.28435L11.1843 8.36552L14.5212 8.65685C14.6146 8.67269 14.6888 8.70409 14.7437 8.75106C14.7986 8.79751 14.8421 8.85794 14.8743 8.93235C14.907 9.00624 14.912 9.08356 14.8893 9.16431C14.8661 9.24506 14.8192 9.3142 14.7484 9.37173L12.2198 11.5662L12.9838 14.82C13.0134 14.9097 13.0102 14.9936 12.9743 15.0717C12.9389 15.1493 12.8872 15.2087 12.8191 15.2499C12.7511 15.2921 12.6811 15.3171 12.6093 15.3251C12.537 15.333 12.4589 15.3161 12.375 15.2744L9.50047 13.5391Z" fill="#111111"/>
<path d="M26.5005 13.5391L23.6267 15.2744C23.5423 15.3166 23.4639 15.3335 23.3916 15.3251C23.3198 15.3166 23.2499 15.2915 23.1818 15.2499C23.1132 15.2087 23.0615 15.149 23.0266 15.0709C22.9908 14.9934 22.9876 14.9094 23.0171 14.8192L23.7811 11.5654L21.2525 9.37252C21.1818 9.31446 21.1348 9.24506 21.1116 9.16431C21.0889 9.08356 21.0939 9.00624 21.1266 8.93235C21.1588 8.85846 21.2024 8.79777 21.2573 8.75027C21.3122 8.70383 21.386 8.67269 21.4789 8.65685L24.8166 8.36552L26.1181 5.28435C26.154 5.19727 26.2057 5.13446 26.2733 5.09594C26.3408 5.05741 26.4166 5.03788 26.5005 5.03735C26.5849 5.03735 26.6609 5.05688 26.7285 5.09594C26.796 5.13499 26.8475 5.1978 26.8828 5.28435L28.1843 8.36552L31.5212 8.65685C31.6146 8.67269 31.6888 8.70409 31.7437 8.75106C31.7986 8.79751 31.8421 8.85794 31.8743 8.93235C31.907 9.00624 31.912 9.08356 31.8893 9.16431C31.8661 9.24506 31.8192 9.3142 31.7484 9.37173L29.2198 11.5662L29.9838 14.82C30.0134 14.9097 30.0102 14.9936 29.9743 15.0717C29.9389 15.1493 29.8872 15.2087 29.8191 15.2499C29.7511 15.2921 29.6811 15.3171 29.6093 15.3251C29.537 15.333 29.4589 15.3161 29.375 15.2744L26.5005 13.5391Z" fill="#111111"/>
<path d="M43.5005 13.5391L40.6267 15.2744C40.5423 15.3166 40.4639 15.3335 40.3916 15.3251C40.3198 15.3166 40.2499 15.2915 40.1818 15.2499C40.1132 15.2087 40.0615 15.149 40.0266 15.0709C39.9908 14.9934 39.9876 14.9094 40.0171 14.8192L40.7811 11.5654L38.2525 9.37252C38.1818 9.31446 38.1348 9.24506 38.1116 9.16431C38.0889 9.08356 38.0939 9.00624 38.1266 8.93235C38.1588 8.85846 38.2024 8.79777 38.2573 8.75027C38.3122 8.70383 38.386 8.67269 38.4789 8.65685L41.8166 8.36552L43.1181 5.28435C43.154 5.19727 43.2057 5.13446 43.2733 5.09594C43.3408 5.05741 43.4166 5.03788 43.5005 5.03735C43.5849 5.03735 43.6609 5.05688 43.7285 5.09594C43.796 5.13499 43.8475 5.1978 43.8828 5.28435L45.1843 8.36552L48.5212 8.65685C48.6146 8.67269 48.6888 8.70409 48.7437 8.75106C48.7986 8.79751 48.8421 8.85794 48.8743 8.93235C48.907 9.00624 48.912 9.08356 48.8893 9.16431C48.8661 9.24506 48.8192 9.3142 48.7484 9.37173L46.2198 11.5662L46.9838 14.82C47.0134 14.9097 47.0102 14.9936 46.9743 15.0717C46.9389 15.1493 46.8872 15.2087 46.8191 15.2499C46.7511 15.2921 46.6811 15.3171 46.6093 15.3251C46.537 15.333 46.4589 15.3161 46.375 15.2744L43.5005 13.5391Z" fill="#111111"/>
</svg>
