<svg width="31" height="31" viewBox="0 0 31 31" fill="none" xmlns="http://www.w3.org/2000/svg">
<path d="M13.7697 2.10096C13.1582 2.10096 12.5467 2.11307 11.9412 2.13123L12.3105 6.10311L8.61113 2.31893C6.71602 2.4703 4.82695 2.71854 2.93184 3.07576L5.00254 4.7953L2.09629 4.75897C4.22148 10.8258 2.51406 15.8148 2.07812 22.4447L7.87246 28.8506C8.47793 28.7719 9.07734 28.7053 9.66465 28.6508L10.9664 26.0957L12.0926 27.8394L14.6053 25.8111L14.6537 28.4146C19.673 28.4025 24.202 28.9656 28.9246 28.893C27.2172 24.473 27.0355 20.1984 26.9932 16.2265L24.977 15.0701L26.9568 13.0176C26.9326 11.7279 26.8781 10.4746 26.7389 9.26971L23.2635 9.31209L26.3029 6.78729C26.0729 5.84881 25.758 4.94666 25.3281 4.08084L23.542 2.63377C20.2846 2.30076 17.0271 2.09491 13.7697 2.10096ZM17.3238 4.34119C17.9656 5.83973 18.6014 7.33826 19.2432 8.83983C19.6973 8.20409 20.1453 7.56834 20.5994 6.9326C21.5682 8.57948 22.5369 10.2203 23.5057 11.8672L22.5248 12.4424L20.5086 9.00936L17.9354 12.6058L17.015 11.9459L18.4682 9.91756L17.1422 6.7994L15.6527 9.22733L16.3793 10.5957L15.3803 11.1285L14.2723 9.03963L12.7707 12.5635L11.7293 12.1154L13.6971 7.50174L14.1633 6.4119C14.4539 6.96893 14.7445 7.51991 15.0412 8.07088C15.798 6.82362 16.5609 5.5818 17.3238 4.34119ZM5.52324 7.74998C5.93012 7.84686 6.33457 7.95584 6.68574 8.07088C6.55859 8.42811 6.4375 8.78534 6.31035 9.13651C5.95978 9.03963 5.60074 8.93065 5.28711 8.85194C5.37127 8.48866 5.44574 8.11932 5.52324 7.74998ZM7.81797 8.56131C8.19941 8.79139 8.54453 8.99725 8.84727 9.33631L8.02988 10.1113C7.7877 9.88729 7.50918 9.68748 7.25488 9.54217L7.81797 8.56131ZM9.55566 10.517C9.68281 10.965 9.68281 11.4676 9.65254 11.8793L8.53242 11.734C8.53848 11.4252 8.55059 11.1285 8.47187 10.856L9.55566 10.517ZM8.27207 12.6785L9.31348 13.1084C9.11367 13.508 9.00469 13.8773 8.79277 14.1861L7.80586 13.6412C7.96328 13.3142 8.14492 12.9873 8.27207 12.6785ZM7.27305 14.7431L8.34473 15.1125C8.25391 15.4394 8.16309 15.7906 8.12676 16.0933L7.00059 15.9722C7.0793 15.5181 7.12773 15.1246 7.27305 14.7431ZM19.8547 15.7967C20.3693 15.8572 20.7387 15.9783 21.1686 16.2265L20.5752 17.1953C20.327 17.0258 20.0061 16.9652 19.7578 16.9228L19.8547 15.7967ZM18.5711 15.8875C18.6377 16.2568 18.7225 16.6262 18.8072 16.9955C18.45 17.0742 18.0988 17.1953 17.8082 17.3043L17.3965 16.2508C17.8021 16.1055 18.2139 15.9662 18.5711 15.8875ZM16.2764 16.8502L16.9424 17.7644C16.6033 18.0066 16.2279 18.2367 15.9252 18.4062L15.3863 17.4133C15.6951 17.2377 16.0281 17.0318 16.2764 16.8502ZM8.19336 17.0137C8.28418 17.2982 8.44766 17.5707 8.61113 17.7463L7.77559 18.5092C7.44258 18.164 7.20039 17.6918 7.09746 17.2922L8.19336 17.0137ZM22.1373 17.2135C22.3492 17.601 22.549 17.9824 22.6641 18.3699L21.5863 18.709C21.4652 18.382 21.326 18.0551 21.1746 17.8129L22.1373 17.2135ZM14.4236 17.8734L14.8414 18.9209C14.4539 19.0844 14.0604 19.2115 13.7152 19.3144L13.4125 18.2246C13.7697 18.1277 14.0967 17.9945 14.4236 17.8734ZM9.3498 18.2488C9.6707 18.3517 10.0037 18.4547 10.3004 18.5031C10.2277 18.8724 10.1793 19.2478 10.1309 19.6232C9.70703 19.5627 9.25293 19.4234 8.88965 19.2781L9.3498 18.2488ZM12.3771 18.4607L12.5467 19.5808C12.1107 19.6596 11.7354 19.6777 11.3479 19.6959L11.3236 18.5637C11.6809 18.5515 12.026 18.5152 12.3771 18.4607ZM22.9426 19.5506C23.0031 19.9381 23.0395 20.3316 23.0758 20.7191L21.9436 20.8099C21.9193 20.4467 21.8891 20.0894 21.8225 19.7322L22.9426 19.5506ZM18.8496 21.4154C19.9939 21.6273 21.5682 22.3963 23.0213 23.468C23.4693 22.8685 23.8932 22.2328 24.3109 21.5849L26.1334 22.366C25.8488 23.1107 25.2252 23.916 24.4018 24.6183C25.4311 25.5992 26.2727 26.7072 26.642 27.8273C25.8064 26.7314 24.759 25.9019 23.5965 25.2359C22.1797 26.1926 20.4057 26.8041 18.777 26.4711C20.1635 26.2047 21.2352 25.466 22.1555 24.4973C21.1564 24.0431 20.109 23.6556 19.0494 23.2803L18.8496 21.4154Z" fill="#3C71FD" fill-opacity="0.75"/>
</svg>
