<svg width="18" height="18" viewBox="0 0 18 18" fill="none" xmlns="http://www.w3.org/2000/svg">
<path d="M9.72225 14.5845C9.64611 14.5086 9.5857 14.4185 9.54448 14.3192C9.50326 14.2199 9.48204 14.1135 9.48204 14.006C9.48204 13.8985 9.50326 13.7921 9.54448 13.6928C9.5857 13.5936 9.64611 13.5034 9.72225 13.4275L13.2265 9.92327L3.22211 9.92327C3.00552 9.92327 2.79779 9.83723 2.64463 9.68407C2.49147 9.53091 2.40543 9.32319 2.40543 9.10659C2.40543 8.88999 2.49147 8.68226 2.64463 8.5291C2.79779 8.37594 3.00552 8.2899 3.22211 8.2899L13.2265 8.2899L9.72225 4.78428C9.56882 4.63086 9.48263 4.42277 9.48263 4.2058C9.48263 3.98882 9.56882 3.78074 9.72225 3.62731C9.87567 3.47389 10.0838 3.3877 10.3007 3.3877C10.5177 3.3877 10.7258 3.47389 10.8792 3.62731L15.7793 8.52742C15.8555 8.60329 15.9159 8.69345 15.9571 8.79272C15.9983 8.89199 16.0195 8.99842 16.0195 9.10591C16.0195 9.21339 15.9983 9.31982 15.9571 9.41909C15.9159 9.51836 15.8555 9.60852 15.7793 9.68439L10.8792 14.5845C10.8033 14.6606 10.7132 14.721 10.6139 14.7623C10.5146 14.8035 10.4082 14.8247 10.3007 14.8247C10.1932 14.8247 10.0868 14.8035 9.98754 14.7623C9.88827 14.721 9.79812 14.6606 9.72225 14.5845Z" fill="#23262F"/>
</svg>
