<svg width="8" height="12" viewBox="0 0 8 12" fill="none" xmlns="http://www.w3.org/2000/svg">
<path d="M3.8178 9.31002L1.1628 6.52352C1.11848 6.47703 1.09375 6.41526 1.09375 6.35102C1.09375 6.28679 1.11848 6.22502 1.1628 6.17852L1.1658 6.17552C1.18728 6.15291 1.21315 6.1349 1.24181 6.12259C1.27048 6.11028 1.30135 6.10394 1.33255 6.10394C1.36374 6.10394 1.39461 6.11028 1.42328 6.12259C1.45195 6.1349 1.47781 6.15291 1.4993 6.17552L3.9993 8.79952L6.4983 6.17552C6.51978 6.15291 6.54565 6.1349 6.57431 6.12259C6.60298 6.11028 6.63385 6.10394 6.66505 6.10394C6.69624 6.10394 6.72711 6.11028 6.75578 6.12259C6.78445 6.1349 6.81031 6.15291 6.8318 6.17552L6.8348 6.17852C6.87912 6.22502 6.90385 6.28679 6.90385 6.35102C6.90385 6.41526 6.87912 6.47703 6.8348 6.52352L4.1798 9.31002C4.15645 9.33453 4.12837 9.35404 4.09725 9.36737C4.06614 9.3807 4.03265 9.38757 3.9988 9.38757C3.96495 9.38757 3.93145 9.3807 3.90034 9.36737C3.86923 9.35404 3.84115 9.33453 3.8178 9.31002Z" fill="#0A0A0A"/>
<path d="M3.8178 5.31002L1.1628 2.52352C1.11848 2.47703 1.09375 2.41526 1.09375 2.35102C1.09375 2.28679 1.11848 2.22502 1.1628 2.17852L1.1658 2.17552C1.18728 2.15291 1.21315 2.1349 1.24181 2.12259C1.27048 2.11028 1.30135 2.10394 1.33255 2.10394C1.36374 2.10394 1.39461 2.11028 1.42328 2.12259C1.45195 2.1349 1.47781 2.15291 1.4993 2.17552L3.9993 4.79952L6.4983 2.17552C6.51978 2.15291 6.54565 2.1349 6.57431 2.12259C6.60298 2.11028 6.63385 2.10394 6.66505 2.10394C6.69624 2.10394 6.72711 2.11028 6.75578 2.12259C6.78445 2.1349 6.81031 2.15291 6.8318 2.17552L6.8348 2.17852C6.87912 2.22502 6.90385 2.28679 6.90385 2.35102C6.90385 2.41526 6.87912 2.47703 6.8348 2.52352L4.1798 5.31002C4.15645 5.33453 4.12837 5.35404 4.09725 5.36737C4.06614 5.3807 4.03265 5.38757 3.9988 5.38757C3.96495 5.38757 3.93145 5.3807 3.90034 5.36737C3.86923 5.35404 3.84115 5.33453 3.8178 5.31002Z" fill="#0A0A0A" fill-opacity="0.35"/>
</svg>
