<svg width="15" height="14" viewBox="0 0 15 14" fill="none" xmlns="http://www.w3.org/2000/svg">
<path d="M7.65513 11.1694C7.59369 11.1078 7.55917 11.0244 7.55917 10.9375C7.55917 10.8505 7.59369 10.7671 7.65513 10.7056L11.0321 7.32812L2.19951 7.32812C2.11248 7.32812 2.02902 7.29355 1.96749 7.23201C1.90595 7.17048 1.87138 7.08702 1.87138 6.99999C1.87138 6.91297 1.90595 6.82951 1.96749 6.76797C2.02902 6.70644 2.11248 6.67187 2.19951 6.67187L11.0321 6.67187L7.65513 3.29437C7.59717 3.23217 7.56562 3.1499 7.56712 3.06489C7.56862 2.97988 7.60305 2.89878 7.66317 2.83866C7.72329 2.77854 7.8044 2.7441 7.8894 2.7426C7.97441 2.7411 8.05668 2.77266 8.11888 2.83062L12.0564 6.76812C12.1178 6.82964 12.1523 6.91304 12.1523 6.99999C12.1523 7.08695 12.1178 7.17035 12.0564 7.23187L8.11888 11.1694C8.05736 11.2308 7.97396 11.2653 7.88701 11.2653C7.80005 11.2653 7.71666 11.2308 7.65513 11.1694Z" fill="black"/>
</svg>
