<svg width="43" height="43" viewBox="0 0 43 43" fill="none" xmlns="http://www.w3.org/2000/svg">
<path d="M21.5009 30.6411L14.9971 34.5684C14.806 34.664 14.6286 34.7022 14.465 34.6831C14.3025 34.664 14.1443 34.6073 13.9902 34.5129C13.8349 34.4197 13.7179 34.2848 13.639 34.108C13.5578 33.9324 13.5506 33.7425 13.6175 33.5382L15.3465 26.1745L9.6239 21.2116C9.46385 21.0802 9.35754 20.9231 9.30499 20.7403C9.25363 20.5576 9.26497 20.3826 9.33903 20.2154C9.41189 20.0482 9.51043 19.9108 9.63465 19.8033C9.75888 19.6982 9.9261 19.6277 10.1363 19.5919L17.69 18.9326L20.6355 11.9594C20.7167 11.7623 20.8338 11.6202 20.9867 11.533C21.1395 11.4458 21.3109 11.4016 21.5009 11.4004C21.692 11.4004 21.864 11.4446 22.0169 11.533C22.1698 11.6214 22.2862 11.7635 22.3662 11.9594L25.3117 18.9326L32.8636 19.5919C33.075 19.6277 33.2428 19.6988 33.3671 19.8051C33.4913 19.9102 33.5898 20.047 33.6627 20.2154C33.7368 20.3826 33.7481 20.5576 33.6967 20.7403C33.6442 20.9231 33.5379 21.0796 33.3778 21.2098L27.6552 26.1763L29.3842 33.54C29.4511 33.7431 29.4439 33.933 29.3627 34.1098C29.2827 34.2853 29.1656 34.4197 29.0115 34.5129C28.8574 34.6084 28.6992 34.6652 28.5367 34.6831C28.3731 34.701 28.1963 34.6628 28.0064 34.5684L21.5009 30.6411Z" fill="#FFED47"/>
</svg>
