<svg width="48" height="50" viewBox="0 0 48 50" fill="none" xmlns="http://www.w3.org/2000/svg">
<g clip-path="url(#clip0_99_90)">
<path d="M27 4.68745C26.9996 5.93107 26.525 7.12359 25.6805 8.00266C24.836 8.88174 23.6909 9.37537 22.497 9.37495C21.3031 9.37454 20.1583 8.88012 19.3144 8.00045C18.4705 7.12079 17.9966 5.92794 17.997 4.68433C17.9974 3.44071 18.472 2.24819 19.3165 1.36912C19.7347 0.933842 20.231 0.58862 20.7772 0.353162C21.3235 0.117704 21.9089 -0.00337876 22.5 -0.00317357C23.0911 -0.00296838 23.6765 0.118521 24.2225 0.354358C24.7686 0.590195 25.2647 0.935761 25.6826 1.37133C26.1005 1.80689 26.4319 2.32392 26.6579 2.89291C26.884 3.46189 27.0002 4.07167 27 4.68745ZM27 12.5H18C17.2044 12.5 16.4413 12.8292 15.8787 13.4152C15.3161 14.0013 15 14.7962 15 15.625V31.25H18V49.9999H21.75V31.25H23.25V49.9999H27V31.25H30V15.625C30 14.7962 29.6839 14.0013 29.1213 13.4152C28.5587 12.8292 27.7956 12.5 27 12.5Z" fill="white"/>
</g>
<defs>
<clipPath id="clip0_99_90">
<rect width="48" height="50" fill="white"/>
</clipPath>
</defs>
</svg>
