<svg width="53" height="19" viewBox="0 0 53 19" fill="none" xmlns="http://www.w3.org/2000/svg">
<path d="M9.5 13.5391L6.62625 15.2744C6.54181 15.3166 6.46343 15.3335 6.39113 15.3251C6.31935 15.3166 6.24942 15.2915 6.18133 15.2499C6.11272 15.2087 6.061 15.149 6.02617 15.0709C5.99028 14.9934 5.98711 14.9094 6.01667 14.8192L6.78062 11.5654L4.25204 9.37252C4.18132 9.31446 4.13435 9.24506 4.11113 9.16431C4.08843 9.08356 4.09344 9.00624 4.12617 8.93235C4.15836 8.85846 4.2019 8.79777 4.25679 8.75027C4.31168 8.70383 4.38557 8.67269 4.47846 8.65685L7.81613 8.36552L9.11763 5.28435C9.15351 5.19727 9.20524 5.13446 9.27279 5.09594C9.34035 5.05741 9.41608 5.03788 9.5 5.03735C9.58444 5.03735 9.66044 5.05688 9.728 5.09594C9.79556 5.13499 9.84701 5.1978 9.88238 5.28435L11.1839 8.36552L14.5208 8.65685C14.6142 8.67269 14.6883 8.70409 14.7432 8.75106C14.7981 8.79751 14.8416 8.85794 14.8738 8.93235C14.9066 9.00624 14.9116 9.08356 14.8889 9.16431C14.8657 9.24506 14.8187 9.3142 14.748 9.37173L12.2194 11.5662L12.9833 14.82C13.0129 14.9097 13.0097 14.9936 12.9738 15.0717C12.9385 15.1493 12.8868 15.2087 12.8187 15.2499C12.7506 15.2921 12.6807 15.3171 12.6089 15.3251C12.5366 15.333 12.4585 15.3161 12.3745 15.2744L9.5 13.5391Z" fill="#111111"/>
<path d="M26.5 13.5391L23.6263 15.2744C23.5418 15.3166 23.4634 15.3335 23.3911 15.3251C23.3193 15.3166 23.2494 15.2915 23.1813 15.2499C23.1127 15.2087 23.061 15.149 23.0262 15.0709C22.9903 14.9934 22.9871 14.9094 23.0167 14.8192L23.7806 11.5654L21.252 9.37252C21.1813 9.31446 21.1343 9.24506 21.1111 9.16431C21.0884 9.08356 21.0934 9.00624 21.1262 8.93235C21.1584 8.85846 21.2019 8.79777 21.2568 8.75027C21.3117 8.70383 21.3856 8.67269 21.4785 8.65685L24.8161 8.36552L26.1176 5.28435C26.1535 5.19727 26.2052 5.13446 26.2728 5.09594C26.3403 5.05741 26.4161 5.03788 26.5 5.03735C26.5844 5.03735 26.6604 5.05688 26.728 5.09594C26.7956 5.13499 26.847 5.1978 26.8824 5.28435L28.1839 8.36552L31.5208 8.65685C31.6142 8.67269 31.6883 8.70409 31.7432 8.75106C31.7981 8.79751 31.8416 8.85794 31.8738 8.93235C31.9066 9.00624 31.9116 9.08356 31.8889 9.16431C31.8657 9.24506 31.8187 9.3142 31.748 9.37173L29.2194 11.5662L29.9833 14.82C30.0129 14.9097 30.0097 14.9936 29.9738 15.0717C29.9385 15.1493 29.8868 15.2087 29.8187 15.2499C29.7506 15.2921 29.6807 15.3171 29.6089 15.3251C29.5366 15.333 29.4585 15.3161 29.3745 15.2744L26.5 13.5391Z" fill="#111111"/>
<path d="M43.5 13.5391L40.6262 15.2744C40.5418 15.3166 40.4634 15.3335 40.3911 15.3251C40.3193 15.3166 40.2494 15.2915 40.1813 15.2499C40.1127 15.2087 40.061 15.149 40.0262 15.0709C39.9903 14.9934 39.9871 14.9094 40.0167 14.8192L40.7806 11.5654L38.252 9.37252C38.1813 9.31446 38.1343 9.24506 38.1111 9.16431C38.0884 9.08356 38.0934 9.00624 38.1262 8.93235C38.1584 8.85846 38.2019 8.79777 38.2568 8.75027C38.3117 8.70383 38.3856 8.67269 38.4785 8.65685L41.8161 8.36552L43.1176 5.28435C43.1535 5.19727 43.2052 5.13446 43.2728 5.09594C43.3403 5.05741 43.4161 5.03788 43.5 5.03735C43.5844 5.03735 43.6604 5.05688 43.728 5.09594C43.7956 5.13499 43.847 5.1978 43.8824 5.28435L45.1839 8.36552L48.5207 8.65685C48.6142 8.67269 48.6883 8.70409 48.7432 8.75106C48.7981 8.79751 48.8416 8.85794 48.8738 8.93235C48.9066 9.00624 48.9116 9.08356 48.8889 9.16431C48.8657 9.24506 48.8187 9.3142 48.748 9.37173L46.2194 11.5662L46.9833 14.82C47.0129 14.9097 47.0097 14.9936 46.9738 15.0717C46.9385 15.1493 46.8867 15.2087 46.8187 15.2499C46.7506 15.2921 46.6807 15.3171 46.6089 15.3251C46.5366 15.333 46.4585 15.3161 46.3745 15.2744L43.5 13.5391Z" fill="#111111"/>
</svg>
