<svg width="24" height="29" viewBox="0 0 24 29" fill="none" xmlns="http://www.w3.org/2000/svg">
<path d="M12 14.379C11.892 14.379 11.7926 14.3613 11.702 14.326C11.6106 14.2907 11.5216 14.2293 11.435 14.142L7.04597 9.75399C6.95264 9.66065 6.90264 9.54599 6.89597 9.40999C6.88931 9.27399 6.93931 9.15265 7.04597 9.04599C7.15264 8.93932 7.27064 8.88599 7.39997 8.88599C7.52931 8.88599 7.64731 8.93932 7.75397 9.04599L12 13.292L16.246 9.04599C16.3393 8.95265 16.454 8.90265 16.59 8.89599C16.726 8.88932 16.8473 8.93932 16.954 9.04599C17.0606 9.15265 17.114 9.27065 17.114 9.39999C17.114 9.52932 17.0606 9.64732 16.954 9.75399L12.565 14.142C12.4783 14.2293 12.3893 14.2907 12.298 14.326C12.2073 14.3613 12.108 14.379 12 14.379Z" fill="#23262F"/>
<path d="M12 19.379C11.892 19.379 11.7926 19.3613 11.702 19.326C11.6106 19.2907 11.5216 19.2293 11.435 19.142L7.04597 14.754C6.95264 14.6607 6.90264 14.546 6.89597 14.41C6.88931 14.274 6.93931 14.1527 7.04597 14.046C7.15264 13.9393 7.27064 13.886 7.39997 13.886C7.52931 13.886 7.64731 13.9393 7.75397 14.046L12 18.292L16.246 14.046C16.3393 13.9527 16.454 13.9027 16.59 13.896C16.726 13.8893 16.8473 13.9393 16.954 14.046C17.0606 14.1527 17.114 14.2707 17.114 14.4C17.114 14.5293 17.0606 14.6473 16.954 14.754L12.565 19.142C12.4783 19.2293 12.3893 19.2907 12.298 19.326C12.2073 19.3613 12.108 19.379 12 19.379Z" fill="#23262F"/>
</svg>
