<svg width="8" height="8" viewBox="0 0 8 8" fill="none" xmlns="http://www.w3.org/2000/svg">
<path d="M3.8178 5.30999L1.1628 2.52349C1.11848 2.477 1.09375 2.41523 1.09375 2.35099C1.09375 2.28676 1.11848 2.22499 1.1628 2.17849L1.1658 2.17549C1.18728 2.15287 1.21315 2.13487 1.24181 2.12256C1.27048 2.11025 1.30135 2.1039 1.33255 2.1039C1.36374 2.1039 1.39461 2.11025 1.42328 2.12256C1.45195 2.13487 1.47781 2.15287 1.4993 2.17549L3.9993 4.79949L6.4983 2.17549C6.51978 2.15287 6.54565 2.13487 6.57431 2.12256C6.60298 2.11025 6.63385 2.1039 6.66505 2.1039C6.69624 2.1039 6.72711 2.11025 6.75578 2.12256C6.78445 2.13487 6.81031 2.15287 6.8318 2.17549L6.8348 2.17849C6.87912 2.22499 6.90385 2.28676 6.90385 2.35099C6.90385 2.41523 6.87912 2.477 6.8348 2.52349L4.1798 5.30999C4.15645 5.3345 4.12837 5.35401 4.09725 5.36734C4.06614 5.38067 4.03265 5.38754 3.9988 5.38754C3.96495 5.38754 3.93145 5.38067 3.90034 5.36734C3.86923 5.35401 3.84115 5.3345 3.8178 5.30999Z" fill="#0A0A0A" fill-opacity="0.35"/>
</svg>
