<svg width="12" height="12" viewBox="0 0 12 12" fill="none" xmlns="http://www.w3.org/2000/svg">
<path d="M7.58841 6L3.73091 9.8575C3.65757 9.9315 3.62124 10.0198 3.62191 10.1225C3.62291 10.2248 3.66024 10.3128 3.73391 10.3865C3.80757 10.4602 3.89574 10.497 3.99841 10.497C4.10107 10.497 4.18924 10.4603 4.26291 10.387L8.08341 6.568C8.16407 6.487 8.22307 6.397 8.26041 6.298C8.29774 6.19833 8.31641 6.09883 8.31641 5.9995C8.31641 5.90016 8.29774 5.80083 8.26041 5.7015C8.22307 5.60216 8.16407 5.51216 8.08341 5.4315L4.26341 1.61C4.18974 1.53633 4.10107 1.5 3.99741 1.501C3.89407 1.502 3.80541 1.53933 3.73141 1.613C3.65741 1.68666 3.62074 1.77483 3.62141 1.8775C3.62141 1.97983 3.65807 2.068 3.73141 2.142L7.58841 6Z" fill="white"/>
</svg>
