<svg width="12" height="12" viewBox="0 0 12 12" fill="none" xmlns="http://www.w3.org/2000/svg">
<path d="M4.41159 6L8.26909 9.8575C8.34243 9.9315 8.37876 10.0198 8.37809 10.1225C8.37709 10.2248 8.33976 10.3128 8.26609 10.3865C8.19243 10.4602 8.10426 10.497 8.00159 10.497C7.89893 10.497 7.81076 10.4603 7.73709 10.387L3.91659 6.568C3.83593 6.487 3.77693 6.397 3.73959 6.298C3.70226 6.19833 3.68359 6.09883 3.68359 5.9995C3.68359 5.90016 3.70226 5.80083 3.73959 5.7015C3.77693 5.60216 3.83593 5.51216 3.91659 5.4315L7.73659 1.61C7.81026 1.53633 7.89893 1.5 8.00259 1.501C8.10593 1.502 8.19459 1.53933 8.26859 1.613C8.34259 1.68666 8.37926 1.77483 8.37859 1.8775C8.37859 1.97983 8.34193 2.068 8.26859 2.142L4.41159 6Z" fill="white"/>
</svg>
