<svg width="277" height="54" viewBox="0 0 277 54" fill="none" xmlns="http://www.w3.org/2000/svg">
<path d="M76.848 8.922C75.352 8.07133 73.7533 7.56533 72.052 7.404V21H69.874V7.404C68.158 7.56533 66.552 8.07133 65.056 8.922L64.286 7.184C66.2513 6.01067 68.466 5.424 70.93 5.424C73.4233 5.424 75.6527 6.01067 77.618 7.184L76.848 8.922ZM91.4361 19.394C90.7761 19.9513 89.9107 20.3913 88.8401 20.714C87.7694 21.022 86.6034 21.176 85.3421 21.176C83.9341 21.176 82.7387 20.9927 81.7561 20.626C80.7734 20.2447 80.0327 19.724 79.5341 19.064C79.0354 18.404 78.7861 17.6413 78.7861 16.776C78.7861 15.896 79.0354 15.1407 79.5341 14.51C80.0474 13.8647 80.7074 13.4027 81.5141 13.124C80.8687 12.8307 80.3627 12.3907 79.9961 11.804C79.6294 11.2027 79.4461 10.5133 79.4461 9.736C79.4461 8.92933 79.6734 8.20333 80.1281 7.558C80.5974 6.91267 81.3014 6.39933 82.2401 6.018C83.1787 5.622 84.3227 5.424 85.6721 5.424C86.6254 5.424 87.5494 5.52667 88.4441 5.732C89.3534 5.93733 90.1381 6.23067 90.7981 6.612L90.1601 8.372C88.8401 7.668 87.3734 7.316 85.7601 7.316C84.4254 7.316 83.4061 7.558 82.7021 8.042C81.9981 8.51133 81.6461 9.12733 81.6461 9.89C81.6461 10.6527 81.9174 11.2393 82.4601 11.65C83.0027 12.0607 83.7801 12.266 84.7921 12.266H88.7521V14.158H84.7041C83.5454 14.158 82.6361 14.3633 81.9761 14.774C81.3161 15.1847 80.9861 15.8007 80.9861 16.622C80.9861 17.458 81.3601 18.1107 82.1081 18.58C82.8561 19.0493 83.9707 19.284 85.4521 19.284C86.4787 19.284 87.4541 19.1447 88.3781 18.866C89.3167 18.5727 90.0867 18.1767 90.6881 17.678L91.4361 19.394ZM99.6017 5.468C101.626 5.468 103.21 5.98867 104.354 7.03C105.498 8.07133 106.07 9.50867 106.07 11.342C106.07 13.1167 105.542 14.51 104.486 15.522C103.43 16.5193 101.978 17.018 100.13 17.018C99.323 17.018 98.5457 16.9153 97.7977 16.71C97.0497 16.5047 96.265 16.1747 95.4437 15.72V21H93.2877V11.65C93.2877 9.68467 93.8377 8.16667 94.9377 7.096C96.0377 6.01067 97.5923 5.468 99.6017 5.468ZM99.7557 15.236C101.032 15.236 102.036 14.8987 102.77 14.224C103.503 13.5347 103.87 12.5887 103.87 11.386C103.87 10.154 103.496 9.19333 102.748 8.504C102 7.8 100.973 7.448 99.6677 7.448C98.333 7.448 97.2917 7.81467 96.5437 8.548C95.8103 9.26667 95.4437 10.2933 95.4437 11.628V13.696C96.045 14.1947 96.7123 14.576 97.4457 14.84C98.179 15.104 98.949 15.236 99.7557 15.236ZM114.834 5.468C116.858 5.468 118.442 5.98867 119.586 7.03C120.73 8.07133 121.302 9.50867 121.302 11.342C121.302 13.1167 120.774 14.51 119.718 15.522C118.662 16.5193 117.21 17.018 115.362 17.018C114.555 17.018 113.778 16.9153 113.03 16.71C112.282 16.5047 111.497 16.1747 110.676 15.72V21H108.52V11.65C108.52 9.68467 109.07 8.16667 110.17 7.096C111.27 6.01067 112.825 5.468 114.834 5.468ZM114.988 15.236C116.264 15.236 117.269 14.8987 118.002 14.224C118.735 13.5347 119.102 12.5887 119.102 11.386C119.102 10.154 118.728 9.19333 117.98 8.504C117.232 7.8 116.205 7.448 114.9 7.448C113.565 7.448 112.524 7.81467 111.776 8.548C111.043 9.26667 110.676 10.2933 110.676 11.628V13.696C111.277 14.1947 111.945 14.576 112.678 14.84C113.411 15.104 114.181 15.236 114.988 15.236ZM137.209 5.6V21H135.097V18.822C134.055 20.3913 132.383 21.176 130.081 21.176C128.247 21.176 126.81 20.6187 125.769 19.504C124.742 18.3893 124.229 16.798 124.229 14.73V5.6H126.429V14.664C126.429 16.1453 126.795 17.2747 127.529 18.052C128.262 18.8293 129.267 19.218 130.543 19.218C131.921 19.218 133.014 18.8073 133.821 17.986C134.627 17.1647 135.031 15.9473 135.031 14.334V5.6L137.209 5.6ZM152.366 8.922C150.87 8.07133 149.271 7.56533 147.57 7.404V21H145.392V7.404C143.676 7.56533 142.07 8.07133 140.574 8.922L139.804 7.184C141.769 6.01067 143.984 5.424 146.448 5.424C148.941 5.424 151.17 6.01067 153.136 7.184L152.366 8.922ZM162.51 21.176C160.955 21.176 159.554 20.8387 158.308 20.164C157.061 19.4747 156.078 18.5287 155.36 17.326C154.656 16.1233 154.304 14.7813 154.304 13.3C154.304 11.8187 154.656 10.4767 155.36 9.274C156.078 8.07133 157.061 7.13267 158.308 6.458C159.554 5.76867 160.955 5.424 162.51 5.424C164.05 5.424 165.443 5.76867 166.69 6.458C167.936 7.13267 168.912 8.07133 169.616 9.274C170.32 10.462 170.672 11.804 170.672 13.3C170.672 14.796 170.32 16.1453 169.616 17.348C168.912 18.536 167.936 19.4747 166.69 20.164C165.443 20.8387 164.05 21.176 162.51 21.176ZM162.51 19.218C163.639 19.218 164.651 18.9613 165.546 18.448C166.455 17.9347 167.166 17.2307 167.68 16.336C168.208 15.4267 168.472 14.4147 168.472 13.3C168.472 12.1853 168.208 11.1807 167.68 10.286C167.166 9.37667 166.455 8.66533 165.546 8.152C164.651 7.63867 163.639 7.382 162.51 7.382C161.38 7.382 160.354 7.63867 159.43 8.152C158.52 8.66533 157.802 9.37667 157.274 10.286C156.76 11.1807 156.504 12.1853 156.504 13.3C156.504 14.4147 156.76 15.4267 157.274 16.336C157.802 17.2307 158.52 17.9347 159.43 18.448C160.354 18.9613 161.38 19.218 162.51 19.218ZM180.168 5.468C182.192 5.468 183.776 5.98867 184.92 7.03C186.064 8.07133 186.636 9.50867 186.636 11.342C186.636 13.1167 186.108 14.51 185.052 15.522C183.996 16.5193 182.544 17.018 180.696 17.018C179.889 17.018 179.112 16.9153 178.364 16.71C177.616 16.5047 176.831 16.1747 176.01 15.72V21H173.854V11.65C173.854 9.68467 174.404 8.16667 175.504 7.096C176.604 6.01067 178.159 5.468 180.168 5.468ZM180.322 15.236C181.598 15.236 182.603 14.8987 183.336 14.224C184.069 13.5347 184.436 12.5887 184.436 11.386C184.436 10.154 184.062 9.19333 183.314 8.504C182.566 7.8 181.539 7.448 180.234 7.448C178.899 7.448 177.858 7.81467 177.11 8.548C176.377 9.26667 176.01 10.2933 176.01 11.628V13.696C176.611 14.1947 177.279 14.576 178.012 14.84C178.745 15.104 179.515 15.236 180.322 15.236ZM202.543 5.6V21H200.431V18.822C199.389 20.3913 197.717 21.176 195.415 21.176C193.581 21.176 192.144 20.6187 191.103 19.504C190.076 18.3893 189.563 16.798 189.563 14.73V5.6H191.763V14.664C191.763 16.1453 192.129 17.2747 192.863 18.052C193.596 18.8293 194.601 19.218 195.877 19.218C197.255 19.218 198.348 18.8073 199.155 17.986C199.961 17.1647 200.365 15.9473 200.365 14.334V5.6H202.543ZM218.536 5.6V21H216.38V16.512H212.134C211.87 16.512 211.672 16.5047 211.54 16.49L208.46 21H206.128L209.538 16.116C208.438 15.7493 207.594 15.1407 207.008 14.29C206.421 13.4247 206.128 12.376 206.128 11.144C206.128 9.39867 206.685 8.042 207.8 7.074C208.929 6.09133 210.447 5.6 212.354 5.6L218.536 5.6ZM208.35 11.122C208.35 12.266 208.68 13.146 209.34 13.762C210.014 14.3633 211.004 14.664 212.31 14.664H216.38V7.514L212.442 7.514C211.122 7.514 210.11 7.822 209.406 8.438C208.702 9.054 208.35 9.94867 208.35 11.122ZM73.328 48.176C71.7733 48.176 70.3727 47.8387 69.126 47.164C67.8793 46.4747 66.8967 45.5287 66.178 44.326C65.474 43.1233 65.122 41.7813 65.122 40.3C65.122 38.8187 65.474 37.4767 66.178 36.274C66.8967 35.0713 67.8793 34.1327 69.126 33.458C70.3727 32.7687 71.7733 32.424 73.328 32.424C74.868 32.424 76.2613 32.7687 77.508 33.458C78.7547 34.1327 79.73 35.0713 80.434 36.274C81.138 37.462 81.49 38.804 81.49 40.3C81.49 41.796 81.138 43.1453 80.434 44.348C79.73 45.536 78.7547 46.4747 77.508 47.164C76.2613 47.8387 74.868 48.176 73.328 48.176ZM73.328 46.218C74.4573 46.218 75.4693 45.9613 76.364 45.448C77.2733 44.9347 77.9847 44.2307 78.498 43.336C79.026 42.4267 79.29 41.4147 79.29 40.3C79.29 39.1853 79.026 38.1807 78.498 37.286C77.9847 36.3767 77.2733 35.6653 76.364 35.152C75.4693 34.6387 74.4573 34.382 73.328 34.382C72.1987 34.382 71.172 34.6387 70.248 35.152C69.3387 35.6653 68.62 36.3767 68.092 37.286C67.5787 38.1807 67.322 39.1853 67.322 40.3C67.322 41.4147 67.5787 42.4267 68.092 43.336C68.62 44.2307 69.3387 44.9347 70.248 45.448C71.172 45.9613 72.1987 46.218 73.328 46.218ZM95.2816 35.922C93.7856 35.0713 92.1869 34.5653 90.4856 34.404V48H88.3076V34.404C86.5916 34.5653 84.9856 35.0713 83.4896 35.922L82.7196 34.184C84.6849 33.0107 86.8996 32.424 89.3636 32.424C91.8569 32.424 94.0863 33.0107 96.0516 34.184L95.2816 35.922ZM104.079 41.224H100.867V48H98.7105V32.6H100.867V39.288H104.123L108.963 32.6H111.317L105.817 40.058L111.581 48H109.073L104.079 41.224ZM119.969 32.468C121.993 32.468 123.577 32.9887 124.721 34.03C125.865 35.0713 126.437 36.5087 126.437 38.342C126.437 40.1167 125.909 41.51 124.853 42.522C123.797 43.5193 122.345 44.018 120.497 44.018C119.69 44.018 118.913 43.9153 118.165 43.71C117.417 43.5047 116.632 43.1747 115.811 42.72V48H113.655V38.65C113.655 36.6847 114.205 35.1667 115.305 34.096C116.405 33.0107 117.96 32.468 119.969 32.468ZM120.123 42.236C121.399 42.236 122.404 41.8987 123.137 41.224C123.87 40.5347 124.237 39.5887 124.237 38.386C124.237 37.154 123.863 36.1933 123.115 35.504C122.367 34.8 121.34 34.448 120.035 34.448C118.7 34.448 117.659 34.8147 116.911 35.548C116.178 36.2667 115.811 37.2933 115.811 38.628V40.696C116.412 41.1947 117.08 41.576 117.813 41.84C118.546 42.104 119.316 42.236 120.123 42.236ZM136.381 37.44C137.495 37.44 138.485 37.6527 139.351 38.078C140.216 38.4887 140.883 39.0973 141.353 39.904C141.837 40.7107 142.079 41.6713 142.079 42.786C142.079 44.502 141.514 45.844 140.385 46.812C139.255 47.7653 137.671 48.242 135.633 48.242C133.594 48.242 132.032 47.758 130.947 46.79C129.861 45.822 129.319 44.4287 129.319 42.61V32.6H131.475V38.782C133.117 37.8873 134.753 37.44 136.381 37.44ZM146.677 32.6V48H144.499V32.6H146.677ZM135.699 46.416C137.004 46.416 138.023 46.1007 138.757 45.47C139.49 44.8247 139.857 43.952 139.857 42.852C139.857 41.7227 139.475 40.8353 138.713 40.19C137.95 39.5447 136.975 39.222 135.787 39.222C135.039 39.222 134.291 39.3613 133.543 39.64C132.809 39.904 132.12 40.3 131.475 40.828V42.566C131.475 43.7833 131.841 44.7293 132.575 45.404C133.323 46.0787 134.364 46.416 135.699 46.416ZM161.926 35.922C160.43 35.0713 158.831 34.5653 157.13 34.404V48H154.952V34.404C153.236 34.5653 151.63 35.0713 150.134 35.922L149.364 34.184C151.329 33.0107 153.544 32.424 156.008 32.424C158.501 32.424 160.731 33.0107 162.696 34.184L161.926 35.922ZM178.115 32.6V48H176.003V45.822C174.962 47.3913 173.29 48.176 170.987 48.176C169.154 48.176 167.716 47.6187 166.675 46.504C165.648 45.3893 165.135 43.798 165.135 41.73V32.6H167.335V41.664C167.335 43.1453 167.702 44.2747 168.435 45.052C169.168 45.8293 170.173 46.218 171.449 46.218C172.828 46.218 173.92 45.8073 174.727 44.986C175.534 44.1647 175.937 42.9473 175.937 41.334V32.6H178.115ZM195.582 32.6V48H193.47V45.822C192.428 47.3913 190.756 48.176 188.454 48.176C186.62 48.176 185.183 47.6187 184.142 46.504C183.115 45.3893 182.602 43.798 182.602 41.73V32.6H184.802V41.664C184.802 43.1453 185.168 44.2747 185.902 45.052C186.635 45.8293 187.64 46.218 188.916 46.218C190.294 46.218 191.387 45.8073 192.194 44.986C193 44.1647 193.404 42.9473 193.404 41.334V32.6H195.582ZM189.202 31.522C187.999 31.522 187.068 31.2653 186.408 30.752C185.762 30.224 185.432 29.476 185.418 28.508H186.98C186.994 29.08 187.192 29.5273 187.574 29.85C187.97 30.158 188.512 30.312 189.202 30.312C189.862 30.312 190.39 30.158 190.786 29.85C191.196 29.5273 191.409 29.08 191.424 28.508H192.964C192.949 29.4613 192.612 30.202 191.952 30.73C191.306 31.258 190.39 31.522 189.202 31.522Z" fill="white"/>
<line x1="33.3149" y1="8.18164" x2="0.42125" y2="8.07999" stroke="white"/>
<line x1="46.5766" y1="45.9199" x2="13.683" y2="45.8183" stroke="white"/>
<line x1="39.9438" y1="27.0508" x2="7.05016" y2="26.9491" stroke="white"/>
</svg>
