<svg width="21" height="18" viewBox="0 0 21 18" fill="none" xmlns="http://www.w3.org/2000/svg">
<path d="M16.7513 17.0916L16.0346 16.3749L18.1753 14.1874H13.1055V13.1458H18.1753L16.0346 10.9583L16.7513 10.2416L20.1763 13.6666L16.7513 17.0916ZM2.28776 14.1874C1.82526 14.1874 1.42943 14.0225 1.10026 13.6926C0.770399 13.3635 0.605469 12.9676 0.605469 12.5051V2.32804C0.605469 1.86554 0.770399 1.46971 1.10026 1.14054C1.42943 0.810682 1.82526 0.645752 2.28776 0.645752H15.5898C16.0523 0.645752 16.4482 0.810682 16.7773 1.14054C17.1072 1.46971 17.2721 1.86554 17.2721 2.32804V7.96138C17.1853 7.95374 17.0985 7.94783 17.0117 7.94367C16.9249 7.9395 16.8381 7.93742 16.7513 7.93742C16.6645 7.93742 16.5777 7.93846 16.4909 7.94054C16.4041 7.94263 16.3173 7.94749 16.2305 7.95513V2.46554L8.83463 7.81763L1.64714 2.47075V12.5051C1.64714 12.6919 1.7072 12.8454 1.82734 12.9655C1.94748 13.0857 2.10095 13.1458 2.28776 13.1458H11.0398C11.0322 13.2326 11.0273 13.3194 11.0253 13.4062C11.0232 13.493 11.0221 13.5798 11.0221 13.6666C11.0221 13.7534 11.0242 13.8402 11.0284 13.927C11.0325 14.0138 11.0385 14.1006 11.0461 14.1874H2.28776ZM2.31589 1.68742L8.83463 6.54679L15.5492 1.68742H2.31589Z" fill="white"/>
</svg>
