<svg width="29" height="29" viewBox="0 0 29 29" fill="none" xmlns="http://www.w3.org/2000/svg">
<path d="M18.5765 8.60938C19.1142 8.60938 19.6399 8.44992 20.087 8.15118C20.5341 7.85244 20.8826 7.42783 21.0883 6.93105C21.2941 6.43426 21.3479 5.88761 21.243 5.36022C21.1381 4.83284 20.8792 4.3484 20.499 3.96818C20.1188 3.58796 19.6343 3.32902 19.1069 3.22412C18.5795 3.11921 18.0329 3.17305 17.5361 3.37883C17.0393 3.5846 16.6147 3.93307 16.316 4.38017C16.0172 4.82727 15.8578 5.35291 15.8578 5.89063C15.8578 6.61168 16.1442 7.30321 16.6541 7.81307C17.1639 8.32294 17.8555 8.60938 18.5765 8.60938ZM18.5765 4.07813C18.935 4.07813 19.2854 4.18443 19.5835 4.38359C19.8816 4.58275 20.1139 4.86582 20.2511 5.19701C20.3882 5.5282 20.4241 5.89264 20.3542 6.24423C20.2843 6.59582 20.1116 6.91877 19.8582 7.17226C19.6047 7.42574 19.2817 7.59836 18.9301 7.6683C18.5785 7.73824 18.2141 7.70234 17.8829 7.56516C17.5517 7.42797 17.2687 7.19566 17.0695 6.8976C16.8703 6.59953 16.764 6.2491 16.764 5.89063C16.764 5.40992 16.955 4.9489 17.2949 4.609C17.6348 4.26909 18.0958 4.07813 18.5765 4.07813ZM28.4818 22.4297L22.3012 11.9988C22.1822 11.7941 22.0113 11.6244 21.8059 11.5067C21.6005 11.389 21.3678 11.3274 21.131 11.3281C20.8949 11.3269 20.6625 11.3878 20.4574 11.5047C20.2522 11.6216 20.0813 11.7905 19.962 11.9942L16.6077 17.6583L11.1385 8.37262C11.0184 8.16873 10.8472 7.99971 10.6417 7.88228C10.4363 7.76486 10.2038 7.70309 9.96715 7.70309C9.73053 7.70309 9.498 7.76486 9.29257 7.88228C9.08713 7.99971 8.91591 8.16873 8.79583 8.37262L0.513834 22.4297C0.474131 22.4985 0.453196 22.5764 0.453125 22.6559C0.453055 22.7353 0.473852 22.8133 0.513433 22.8821C0.553014 22.951 0.609989 23.0082 0.678651 23.0481C0.747313 23.088 0.82525 23.1091 0.904654 23.1094H28.0922C28.1715 23.1089 28.2493 23.0876 28.3178 23.0477C28.3863 23.0077 28.4431 22.9504 28.4825 22.8816C28.522 22.8128 28.5427 22.7349 28.5426 22.6556C28.5424 22.5763 28.5215 22.4984 28.4818 22.4297ZM9.57633 8.83594C9.61631 8.7678 9.67341 8.7113 9.74197 8.67204C9.81052 8.63278 9.88815 8.61212 9.96715 8.61212C10.0462 8.61212 10.1238 8.63278 10.1923 8.67204C10.2609 8.7113 10.318 8.7678 10.358 8.83594L13.4302 14.0469H6.50415L9.57633 8.83594ZM1.69762 22.2031L5.96946 14.9531H13.9649L18.2367 22.2031H1.69762ZM19.2891 22.2031L17.1367 18.5453L20.7413 12.4609C20.7815 12.3933 20.8385 12.3373 20.9068 12.2984C20.9751 12.2595 21.0524 12.239 21.131 12.239C21.2096 12.239 21.2869 12.2595 21.3552 12.2984C21.4236 12.3373 21.4806 12.3933 21.5207 12.4609L27.2981 22.2031H19.2891Z" fill="#3C71FD" fill-opacity="0.75"/>
</svg>
