<svg width="26" height="34" viewBox="0 0 26 34" fill="none" xmlns="http://www.w3.org/2000/svg">
<path d="M5.41667 19.8334C5.41667 18.1352 5.67017 16.5816 6.17717 15.1725C6.68417 13.7625 7.28831 12.5054 7.98959 11.4014C8.69087 10.2964 9.40948 9.35521 10.1454 8.57794C10.8821 7.79877 11.4725 7.20046 11.9167 6.78302V8.92502C11.9167 10.235 12.2536 11.2705 12.9274 12.0318C13.6005 12.7939 14.356 13.175 15.1938 13.175C15.5426 13.175 15.8741 13.1014 16.1883 12.954C16.5031 12.8067 16.8058 12.5895 17.0961 12.3024L17.5619 11.8235C18.4871 12.7425 19.222 13.8999 19.7665 15.2958C20.3111 16.6917 20.5833 18.2042 20.5833 19.8334C20.5833 22.0018 20.1117 23.9237 19.1685 25.5992C18.2253 27.2746 17.0177 28.4448 15.5458 29.1097C15.9358 28.6705 16.241 28.1464 16.4613 27.5372C16.6815 26.9271 16.7917 26.2716 16.7917 25.5709C16.7917 24.9352 16.6978 24.3209 16.51 23.7278C16.3222 23.1347 16.0521 22.6077 15.6997 22.1468L13 18.6944L10.3274 22.1468C9.96992 22.6133 9.69403 23.1375 9.49976 23.7193C9.30548 24.3001 9.20834 24.9173 9.20834 25.5709C9.20834 26.2716 9.31848 26.9271 9.53876 27.5372C9.75903 28.1473 10.0642 28.6715 10.4542 29.1097C8.98228 28.4448 7.77473 27.2746 6.83151 25.5992C5.88828 23.9237 5.41667 22.0018 5.41667 19.8334ZM13 20.672L14.9273 23.1484C15.1786 23.477 15.3714 23.8439 15.5058 24.2491C15.6408 24.6552 15.7083 25.0958 15.7083 25.5709C15.7083 26.5276 15.4447 27.3455 14.9175 28.0245C14.3888 28.7026 13.7497 29.0417 13 29.0417C12.2503 29.0417 11.6112 28.7026 11.0825 28.0245C10.5553 27.3455 10.2917 26.5276 10.2917 25.5709C10.2917 25.1185 10.3556 24.6887 10.4834 24.2817C10.6113 23.8737 10.8077 23.4959 11.0728 23.1484L13 20.672Z" fill="#3C71FD"/>
</svg>
