<svg width="32" height="32" viewBox="0 0 32 32" fill="none" xmlns="http://www.w3.org/2000/svg">
<path d="M15.216 22.616C13.544 22.4027 12.1453 21.6742 11.02 20.4307C9.89556 19.188 9.33333 17.7111 9.33333 16C9.33333 14.1484 9.98133 12.5742 11.2773 11.2773C12.5742 9.98133 14.1484 9.33333 16 9.33333C17.7111 9.33333 19.188 9.89156 20.4307 11.008C21.6733 12.1244 22.4018 13.5182 22.616 15.1893L21.1747 14.7667C20.8867 13.5667 20.2676 12.5836 19.3173 11.8173C18.3671 11.0511 17.2613 10.6676 16 10.6667C14.5333 10.6667 13.2778 11.1889 12.2333 12.2333C11.1889 13.2778 10.6667 14.5333 10.6667 16C10.6667 17.2667 11.0542 18.3778 11.8293 19.3333C12.6044 20.2889 13.5836 20.9111 14.7667 21.2L15.216 22.616ZM16.816 27.9587C16.68 27.9862 16.544 28 16.408 28H16C14.3396 28 12.7796 27.6853 11.32 27.056C9.86044 26.4258 8.59067 25.5707 7.51067 24.4907C6.43067 23.4116 5.57556 22.1422 4.94533 20.6827C4.31511 19.2231 4 17.6636 4 16.004C4 14.3453 4.31467 12.7853 4.944 11.324C5.57422 9.86356 6.42933 8.59289 7.50933 7.512C8.58844 6.43111 9.85778 5.57556 11.3173 4.94533C12.7769 4.31511 14.3364 4 15.996 4C17.6547 4 19.2147 4.31511 20.676 4.94533C22.1373 5.57556 23.408 6.43067 24.488 7.51067C25.5689 8.59067 26.4244 9.86044 27.0547 11.32C27.6849 12.7804 28 14.3404 28 16V16.3947C28 16.5262 27.9867 16.6578 27.96 16.7893L26.6667 16.4V16C26.6667 13.0222 25.6333 10.5 23.5667 8.43333C21.5 6.36667 18.9778 5.33333 16 5.33333C13.0222 5.33333 10.5 6.36667 8.43333 8.43333C6.36667 10.5 5.33333 13.0222 5.33333 16C5.33333 18.9778 6.36667 21.5 8.43333 23.5667C10.5 25.6333 13.0222 26.6667 16 26.6667H16.4L16.816 27.9587ZM26.3413 27.7187L19.9493 21.3L18.7173 25.0253L16 16L25.0267 18.7173L21.3 19.9493L27.7173 26.3413L26.3413 27.7187Z" fill="#3C71FD"/>
</svg>
