<svg width="19" height="19" viewBox="0 0 19 19" fill="none" xmlns="http://www.w3.org/2000/svg">
<path d="M9.50047 13.5391L6.62672 15.2744C6.54228 15.3166 6.4639 15.3335 6.3916 15.3251C6.31982 15.3166 6.24989 15.2916 6.18181 15.2499C6.11319 15.2087 6.06147 15.1491 6.02664 15.071C5.99075 14.9934 5.98758 14.9095 6.01714 14.8192L6.7811 11.5655L4.25251 9.37254C4.18179 9.31449 4.13482 9.24508 4.1116 9.16433C4.0889 9.08358 4.09392 9.00627 4.12664 8.93238C4.15883 8.85849 4.20237 8.79779 4.25726 8.75029C4.31215 8.70385 4.38604 8.67271 4.47893 8.65688L7.8166 8.36554L9.1181 5.28438C9.15399 5.19729 9.20571 5.13449 9.27326 5.09596C9.34082 5.05743 9.41656 5.0379 9.50047 5.03738C9.58492 5.03738 9.66092 5.0569 9.72847 5.09596C9.79603 5.13502 9.84749 5.19782 9.88285 5.28438L11.1843 8.36554L14.5212 8.65688C14.6146 8.67271 14.6888 8.70411 14.7437 8.75108C14.7986 8.79753 14.8421 8.85796 14.8743 8.93238C14.907 9.00627 14.912 9.08358 14.8893 9.16433C14.8661 9.24508 14.8192 9.31422 14.7484 9.37175L12.2198 11.5663L12.9838 14.82C13.0134 14.9097 13.0102 14.9936 12.9743 15.0718C12.9389 15.1493 12.8872 15.2087 12.8191 15.2499C12.7511 15.2921 12.6811 15.3172 12.6093 15.3251C12.537 15.333 12.4589 15.3161 12.375 15.2744L9.50047 13.5391Z" fill="#111111"/>
</svg>
