<svg width="8" height="8" viewBox="0 0 8 8" fill="none" xmlns="http://www.w3.org/2000/svg">
<path d="M3.8178 5.3099L1.1628 2.5234C1.11848 2.47691 1.09375 2.41514 1.09375 2.3509C1.09375 2.28667 1.11848 2.2249 1.1628 2.1784L1.1658 2.1754C1.18728 2.15278 1.21315 2.13477 1.24181 2.12247C1.27048 2.11016 1.30135 2.10381 1.33255 2.10381C1.36374 2.10381 1.39461 2.11016 1.42328 2.12247C1.45195 2.13477 1.47781 2.15278 1.4993 2.1754L3.9993 4.7994L6.4983 2.1754C6.51978 2.15278 6.54565 2.13477 6.57431 2.12247C6.60298 2.11016 6.63385 2.10381 6.66505 2.10381C6.69624 2.10381 6.72711 2.11016 6.75578 2.12247C6.78445 2.13477 6.81031 2.15278 6.8318 2.1754L6.8348 2.1784C6.87912 2.2249 6.90385 2.28667 6.90385 2.3509C6.90385 2.41514 6.87912 2.47691 6.8348 2.5234L4.1798 5.3099C4.15645 5.33441 4.12837 5.35392 4.09725 5.36725C4.06614 5.38058 4.03265 5.38745 3.9988 5.38745C3.96495 5.38745 3.93145 5.38058 3.90034 5.36725C3.86923 5.35392 3.84115 5.33441 3.8178 5.3099Z" fill="white"/>
</svg>
