<svg width="20" height="19" viewBox="0 0 20 19" fill="none" xmlns="http://www.w3.org/2000/svg">
<path d="M18.779 16.025L13.5607 11.0676C13.144 11.4049 12.6648 11.6659 12.1232 11.8506C11.5815 12.0353 11.0371 12.1277 10.4898 12.1277C9.1554 12.1277 8.02595 11.6888 7.10151 10.8111C6.17707 9.93291 5.71484 8.8602 5.71484 7.59301C5.71484 6.32581 6.17651 5.25257 7.09984 4.3733C8.02373 3.49349 9.15262 3.05359 10.4865 3.05359C11.821 3.05359 12.951 3.4927 13.8765 4.37092C14.8021 5.24914 15.2648 6.32238 15.2648 7.59063C15.2648 8.14058 15.1623 8.67284 14.9573 9.18742C14.7518 9.70201 14.4823 10.1422 14.149 10.5079L19.3673 15.4645L18.779 16.025ZM10.4898 11.3352C11.5954 11.3352 12.529 10.9737 13.2907 10.2506C14.0518 9.52758 14.4323 8.64064 14.4323 7.58984C14.4323 6.53956 14.0518 5.65289 13.2907 4.92984C12.5296 4.20678 11.5962 3.84526 10.4907 3.84526C9.38512 3.84526 8.45151 4.20678 7.68984 4.92984C6.92873 5.65289 6.54818 6.53956 6.54818 7.58984C6.54818 8.64012 6.92873 9.52678 7.68984 10.2498C8.45095 10.9729 9.38429 11.3352 10.4898 11.3352Z" fill="#23262F" fill-opacity="0.55"/>
</svg>
