<svg width="24" height="24" viewBox="0 0 24 24" fill="none" xmlns="http://www.w3.org/2000/svg">
<path d="M13.4707 8.52997C13.397 8.46131 13.3379 8.37851 13.2969 8.28651C13.2559 8.19451 13.2338 8.0952 13.2321 7.99449C13.2303 7.89379 13.2488 7.79376 13.2865 7.70037C13.3243 7.60698 13.3804 7.52215 13.4516 7.45093C13.5228 7.37971 13.6077 7.32357 13.7011 7.28585C13.7945 7.24813 13.8945 7.2296 13.9952 7.23138C14.0959 7.23316 14.1952 7.2552 14.2872 7.29619C14.3792 7.33718 14.462 7.39628 14.5307 7.46997L18.5307 11.47C18.6711 11.6106 18.75 11.8012 18.75 12C18.75 12.1987 18.6711 12.3893 18.5307 12.53L14.5307 16.53C14.462 16.6037 14.3792 16.6628 14.2872 16.7038C14.1952 16.7447 14.0959 16.7668 13.9952 16.7686C13.8945 16.7703 13.7944 16.7518 13.7011 16.7141C13.6077 16.6764 13.5228 16.6202 13.4516 16.549C13.3804 16.4778 13.3243 16.393 13.2865 16.2996C13.2488 16.2062 13.2303 16.1062 13.2321 16.0054C13.2338 15.9047 13.2559 15.8054 13.2969 15.7134C13.3379 15.6214 13.397 15.5386 13.4707 15.47L16.1907 12.75L6.50066 12.75C6.30175 12.75 6.11098 12.671 5.97033 12.5303C5.82968 12.3896 5.75066 12.1989 5.75066 12C5.75066 11.8011 5.82968 11.6103 5.97033 11.4696C6.11098 11.329 6.30175 11.25 6.50066 11.25L16.1907 11.25L13.4707 8.52997Z" fill="#23262F"/>
</svg>
