<svg width="29" height="29" viewBox="0 0 29 29" fill="none" xmlns="http://www.w3.org/2000/svg">
<path d="M16.277 10.3071C16.188 10.2241 16.1166 10.124 16.0671 10.0129C16.0175 9.90172 15.9909 9.78171 15.9887 9.66003C15.9866 9.53835 16.009 9.41748 16.0546 9.30463C16.1001 9.19179 16.168 9.08928 16.254 9.00323C16.3401 8.91717 16.4426 8.84933 16.5555 8.80375C16.6683 8.75817 16.7892 8.73579 16.9108 8.73793C17.0325 8.74008 17.1525 8.76671 17.2637 8.81625C17.3749 8.86578 17.4749 8.93719 17.5579 9.02623L22.3912 13.8596C22.5609 14.0295 22.6562 14.2598 22.6562 14.5C22.6562 14.7401 22.5609 14.9705 22.3912 15.1404L17.5579 19.9737C17.4749 20.0628 17.3749 20.1342 17.2637 20.1837C17.1525 20.2332 17.0325 20.2599 16.9108 20.262C16.7892 20.2642 16.6683 20.2418 16.5554 20.1962C16.4426 20.1506 16.3401 20.0828 16.254 19.9967C16.168 19.9107 16.1001 19.8082 16.0546 19.6953C16.009 19.5825 15.9866 19.4616 15.9887 19.3399C15.9909 19.2183 16.0175 19.0982 16.0671 18.9871C16.1166 18.8759 16.188 18.7759 16.277 18.6929L19.5637 15.4062L7.85496 15.4062C7.61461 15.4062 7.3841 15.3108 7.21415 15.1408C7.04419 14.9708 6.94871 14.7403 6.94871 14.5C6.94871 14.2596 7.04419 14.0291 7.21415 13.8592C7.3841 13.6892 7.61461 13.5937 7.85496 13.5937L19.5637 13.5937L16.277 10.3071Z" fill="#23262F"/>
</svg>
