<svg width="20" height="23" viewBox="0 0 20 23" fill="none" xmlns="http://www.w3.org/2000/svg">
<path d="M2.01875 22.0106C1.44375 22.0106 0.96375 21.8269 0.57875 21.4596C0.192916 21.0914 0 20.633 0 20.0843V4.85267C0 4.30399 0.192916 3.84597 0.57875 3.4786C0.96375 3.11043 1.44375 2.92635 2.01875 2.92635H4.23125V0.266479H5.5775V2.92635H14.5187V0.266479H15.7687V2.92635H17.9813C18.5562 2.92635 19.0363 3.11043 19.4213 3.4786C19.8071 3.84597 20 4.30399 20 4.85267V20.0843C20 20.633 19.8075 21.091 19.4225 21.4584C19.0367 21.8265 18.5562 22.0106 17.9813 22.0106H2.01875ZM2.01875 20.8178H17.9813C18.1729 20.8178 18.3492 20.7415 18.51 20.5888C18.67 20.4354 18.75 20.2672 18.75 20.0843V9.62373H1.25V20.0843C1.25 20.2672 1.33 20.4354 1.49 20.5888C1.65083 20.7415 1.82708 20.8178 2.01875 20.8178ZM1.25 8.43097H18.75V4.85267C18.75 4.66978 18.67 4.5016 18.51 4.34813C18.3492 4.19545 18.1729 4.11912 17.9813 4.11912H2.01875C1.82708 4.11912 1.65083 4.19545 1.49 4.34813C1.33 4.5016 1.25 4.66978 1.25 4.85267V8.43097ZM10 13.8449C9.74167 13.8449 9.51667 13.7535 9.325 13.5706C9.13333 13.3877 9.0375 13.173 9.0375 12.9265C9.0375 12.6808 9.13333 12.4665 9.325 12.2836C9.51667 12.1007 9.74167 12.0093 10 12.0093C10.2583 12.0093 10.4833 12.1007 10.675 12.2836C10.8667 12.4665 10.9625 12.6812 10.9625 12.9277C10.9625 13.1742 10.8667 13.3885 10.675 13.5706C10.4833 13.7535 10.2583 13.8449 10 13.8449ZM5 13.8449C4.74167 13.8449 4.51667 13.7535 4.325 13.5706C4.13333 13.3877 4.0375 13.173 4.0375 12.9265C4.0375 12.6808 4.13333 12.4665 4.325 12.2836C4.51667 12.1007 4.74167 12.0093 5 12.0093C5.25833 12.0093 5.48333 12.1007 5.675 12.2836C5.86667 12.4665 5.9625 12.6812 5.9625 12.9277C5.9625 13.1742 5.86667 13.3885 5.675 13.5706C5.48333 13.7535 5.25833 13.8449 5 13.8449ZM15 13.8449C14.7417 13.8449 14.5167 13.7535 14.325 13.5706C14.1333 13.3877 14.0375 13.173 14.0375 12.9265C14.0375 12.6808 14.1333 12.4665 14.325 12.2836C14.5167 12.1007 14.7417 12.0093 15 12.0093C15.2583 12.0093 15.4833 12.1007 15.675 12.2836C15.8667 12.4665 15.9625 12.6812 15.9625 12.9277C15.9625 13.1742 15.8667 13.3885 15.675 13.5706C15.4833 13.7535 15.2583 13.8449 15 13.8449ZM10 18.4323C9.74167 18.4323 9.51667 18.3409 9.325 18.158C9.13333 17.9751 9.0375 17.7604 9.0375 17.5139C9.0375 17.2682 9.13333 17.0539 9.325 16.871C9.51667 16.6881 9.74167 16.5966 10 16.5966C10.2583 16.5966 10.4833 16.6881 10.675 16.871C10.8667 17.0539 10.9625 17.2686 10.9625 17.5151C10.9625 17.7616 10.8667 17.9763 10.675 18.1592C10.4833 18.3413 10.2583 18.4323 10 18.4323ZM5 18.4323C4.74167 18.4323 4.51667 18.3409 4.325 18.158C4.13333 17.9751 4.0375 17.7604 4.0375 17.5139C4.0375 17.2682 4.13333 17.0539 4.325 16.871C4.51667 16.6881 4.74167 16.5966 5 16.5966C5.25833 16.5966 5.48333 16.6881 5.675 16.871C5.86667 17.0539 5.9625 17.2686 5.9625 17.5151C5.9625 17.7616 5.86667 17.9763 5.675 18.1592C5.48333 18.3413 5.25833 18.4323 5 18.4323ZM15 18.4323C14.7417 18.4323 14.5167 18.3409 14.325 18.158C14.1333 17.9751 14.0375 17.7604 14.0375 17.5139C14.0375 17.2682 14.1333 17.0539 14.325 16.871C14.5167 16.6881 14.7417 16.5966 15 16.5966C15.2583 16.5966 15.4833 16.6881 15.675 16.871C15.8667 17.0539 15.9625 17.2686 15.9625 17.5151C15.9625 17.7616 15.8667 17.9763 15.675 18.1592C15.4833 18.3413 15.2583 18.4323 15 18.4323Z" fill="#AEB2C1"/>
</svg>
