<svg width="20" height="23" viewBox="0 0 20 23" fill="none" xmlns="http://www.w3.org/2000/svg">
<path d="M8.06449 13.2624L0.717951 10.0241C0.457144 9.91239 0.272528 9.74436 0.164103 9.51997C0.0556778 9.29557 0.000976803 9.06586 0 8.83083C0 8.59686 0.0605619 8.36555 0.181686 8.13691C0.302809 7.90932 0.493775 7.73916 0.754581 7.62643L18.381 0.36495C18.6115 0.258601 18.8377 0.238396 19.0594 0.304332C19.2811 0.370268 19.4726 0.490973 19.6337 0.666449C19.7949 0.841924 19.9058 1.05037 19.9663 1.29178C20.0259 1.53319 20.0064 1.77885 19.9077 2.02877L13.181 21.1986C13.0823 21.4698 12.9295 21.673 12.7224 21.808C12.5163 21.9431 12.3048 22.0106 12.0879 22.0106C11.8721 22.0106 11.6586 21.9457 11.4476 21.816C11.2367 21.6862 11.0809 21.4805 10.9802 21.1986L8.06449 13.2624ZM12.0645 19.8331L18.337 2.07823L1.97217 8.84359L9.15167 12.0165L12.0645 19.8331Z" fill="#AEB2C1"/>
</svg>
