<svg width="33" height="32" viewBox="0 0 33 32" fill="none" xmlns="http://www.w3.org/2000/svg">
<path d="M30.9856 26.9895L22.3753 18.6402C21.6878 19.2082 20.8972 19.6478 20.0034 19.9589C19.1097 20.27 18.2114 20.4256 17.3084 20.4256C15.1066 20.4256 13.243 19.6864 11.7177 18.2082C10.1924 16.7291 9.42969 14.9224 9.42969 12.7882C9.42969 10.654 10.1914 8.84644 11.7149 7.36555C13.2394 5.88377 15.102 5.14288 17.3029 5.14288C19.5048 5.14288 21.3693 5.88244 22.8964 7.36155C24.4236 8.84066 25.1872 10.6482 25.1872 12.7842C25.1872 13.7104 25.0181 14.6069 24.6798 15.4736C24.3406 16.3402 23.8961 17.0816 23.3461 17.6976L31.9563 26.0456L30.9856 26.9895ZM17.3084 19.0909C19.1326 19.0909 20.6731 18.482 21.9298 17.2642C23.1856 16.0464 23.8136 14.5527 23.8136 12.7829C23.8136 11.014 23.1856 9.52066 21.9298 8.30288C20.674 7.08511 19.134 6.47622 17.3098 6.47622C15.4856 6.47622 13.9452 7.08511 12.6884 8.30288C11.4326 9.52066 10.8047 11.014 10.8047 12.7829C10.8047 14.5518 11.4326 16.0451 12.6884 17.2629C13.9443 18.4807 15.4843 19.0909 17.3084 19.0909Z" fill="white"/>
</svg>
