<svg width="17" height="17" viewBox="0 0 17 17" fill="none" xmlns="http://www.w3.org/2000/svg">
<path d="M8.5 7.88547C7.49862 7.88547 6.64093 7.51735 5.92693 6.78109C5.21293 6.04484 4.85633 5.16083 4.85714 4.12908C4.85714 3.09565 5.21374 2.21081 5.92693 1.47456C6.64012 0.739972 7.49781 0.372681 8.5 0.372681C9.50219 0.372681 10.3599 0.739972 11.0731 1.47456C11.7863 2.21081 12.1429 3.09565 12.1429 4.12908C12.1429 5.16167 11.7863 6.04567 11.0731 6.78109C10.3599 7.51651 9.50219 7.88464 8.5 7.88547ZM0 16.9384V14.8786C0 14.3619 0.145714 13.8786 0.437143 13.4287C0.729381 12.9779 1.122 12.6281 1.615 12.3794C2.76129 11.8126 3.90798 11.3877 5.05507 11.1047C6.20298 10.8209 7.35129 10.679 8.5 10.679C9.64952 10.679 10.7978 10.8209 11.9449 11.1047C13.092 11.3885 14.2383 11.8134 15.3838 12.3794C15.8776 12.6281 16.2702 12.9779 16.5616 13.4287C16.8539 13.8786 17 14.3619 17 14.8786V16.9396L0 16.9384ZM1.21429 15.6863H15.7857V14.8774C15.7857 14.6002 15.6991 14.3394 15.5259 14.0948C15.3518 13.851 15.1114 13.6449 14.8046 13.4762C13.8056 12.9771 12.7751 12.5947 11.713 12.3293C10.6525 12.063 9.58152 11.9299 8.5 11.9299C7.41929 11.9299 6.34829 12.063 5.287 12.3293C4.22491 12.5947 3.19438 12.9771 2.19543 13.4762C1.88781 13.6449 1.64738 13.851 1.47414 14.0948C1.30091 14.3394 1.21429 14.6007 1.21429 14.8786V15.6863ZM8.5 6.63334C9.16786 6.63334 9.73979 6.38792 10.2158 5.89709C10.6918 5.40625 10.9294 4.81692 10.9286 4.12908C10.9286 3.4404 10.691 2.85065 10.2158 2.35981C9.7406 1.86898 9.16867 1.62398 8.5 1.62481C7.83214 1.62481 7.26062 1.86981 6.78543 2.35981C6.31024 2.84982 6.07224 3.43957 6.07143 4.12908C6.07143 4.81775 6.30943 5.40709 6.78543 5.89709C7.26143 6.38709 7.83295 6.63251 8.5 6.63334Z" fill="#AEB2C1"/>
</svg>
